<?xml version="1.0" encoding="UTF-8" standalone="no"?>
<!DOCTYPE svg PUBLIC "-//W3C//DTD SVG 1.1//EN" "http://www.w3.org/Graphics/SVG/1.1/DTD/svg11.dtd">
<svg width="100%" height="100%" viewBox="0 0 1537 506" version="1.1" xmlns="http://www.w3.org/2000/svg" xmlns:xlink="http://www.w3.org/1999/xlink" xml:space="preserve" xmlns:serif="http://www.serif.com/" style="fill-rule:evenodd;clip-rule:evenodd;stroke-linejoin:round;stroke-miterlimit:2;">
    <g transform="matrix(1,0,0,1,-231.985,-747.156)">
        <g transform="matrix(1.73955,0,0,1.73955,-595.888,-911.067)">
            <g transform="matrix(284.272,0,0,284.272,468.235,1240.41)">
                <path d="M0.141,0.009C0.109,0.009 0.082,-0.002 0.06,-0.023C0.038,-0.044 0.027,-0.071 0.027,-0.104C0.027,-0.137 0.038,-0.164 0.059,-0.185C0.081,-0.206 0.108,-0.216 0.141,-0.216C0.174,-0.216 0.202,-0.206 0.223,-0.185C0.244,-0.164 0.255,-0.137 0.255,-0.104C0.255,-0.071 0.244,-0.044 0.223,-0.023C0.201,-0.002 0.174,0.009 0.141,0.009Z" style="fill:white;"/>
            </g>
            <g transform="matrix(281.171,0,0,285.893,580.398,1204.58)">
                <path d="M0.293,-0.842L0.462,-0.842L0.132,0.1L-0.037,0.1L0.293,-0.842Z" style="fill:none;fill-rule:nonzero;stroke:white;stroke-width:0.07px;"/>
            </g>
            <g transform="matrix(396.639,0,0,396.639,686.451,1237.42)">
                <path d="M0.419,0.014C0.346,0.014 0.28,-0.002 0.222,-0.033C0.163,-0.064 0.117,-0.107 0.084,-0.162C0.051,-0.217 0.034,-0.28 0.034,-0.35C0.034,-0.42 0.051,-0.483 0.084,-0.538C0.117,-0.593 0.163,-0.636 0.222,-0.668C0.28,-0.699 0.346,-0.714 0.419,-0.714C0.483,-0.714 0.541,-0.703 0.592,-0.68C0.643,-0.657 0.686,-0.625 0.72,-0.582L0.594,-0.468C0.549,-0.523 0.494,-0.55 0.429,-0.55C0.391,-0.55 0.357,-0.542 0.328,-0.525C0.298,-0.508 0.275,-0.485 0.259,-0.455C0.242,-0.424 0.234,-0.389 0.234,-0.35C0.234,-0.311 0.242,-0.276 0.259,-0.246C0.275,-0.215 0.298,-0.192 0.328,-0.175C0.357,-0.158 0.391,-0.15 0.429,-0.15C0.494,-0.15 0.549,-0.177 0.594,-0.232L0.72,-0.118C0.686,-0.075 0.643,-0.043 0.592,-0.02C0.541,0.003 0.483,0.014 0.419,0.014Z" style="fill:white;"/>
            </g>
            <g transform="matrix(412.505,0,0,412.505,971.159,1242.97)">
                <path d="M0.632,-0.153L0.632,-0L0.07,-0L0.07,-0.7L0.619,-0.7L0.619,-0.547L0.266,-0.547L0.266,-0.429L0.577,-0.429L0.577,-0.281L0.266,-0.281L0.266,-0.153L0.632,-0.153Z" style="fill:white;"/>
            </g>
            <g transform="matrix(412.505,0,0,412.505,1248.36,1242.97)">
                <rect x="0.07" y="-0.7" width="0.198" height="0.7" style="fill:white;"/>
            </g>
        </g>
    </g>
</svg>
